<?xml version="1.0" encoding="iso-8859-1"?>
<!-- Generator: Adobe Illustrator 19.0.0, SVG Export Plug-In . SVG Version: 6.00 Build 0)  -->
<svg version="1.1" id="Layer_1" xmlns="http://www.w3.org/2000/svg" xmlns:xlink="http://www.w3.org/1999/xlink" x="0px" y="0px"
	 viewBox="0 0 512 512" style="enable-background:new 0 0 512 512;" xml:space="preserve">
<path style="fill:#FFBB5E;" d="M503.395,385.434c0,62.376-110.762,112.941-247.395,112.941S8.605,447.81,8.605,385.434
	c0-16.994,8.222-74.998,22.949-89.456C70.88,257.373,156.593,272.493,256,272.493c99.405,0,185.118-14.224,224.444,24.381
	C495.173,311.332,503.395,368.439,503.395,385.434z"/>
<path style="fill:#CF8F3D;" d="M503.395,338.466c0,62.376-110.762,112.941-247.395,112.941S8.605,400.842,8.605,338.466
	S119.368,225.525,256,225.525S503.395,276.09,503.395,338.466z"/>
<path style="fill:#FFBB5E;" d="M503.395,309.782c0,62.376-110.762,112.941-247.395,112.941S8.605,372.158,8.605,309.782
	S119.368,196.841,256,196.841S503.395,247.406,503.395,309.782z"/>
<path style="fill:#CF8F3D;" d="M503.395,282.174c0,62.376-110.762,112.941-247.395,112.941S8.605,344.55,8.605,282.174
	S119.368,169.233,256,169.233S503.395,219.798,503.395,282.174z"/>
<path style="fill:#FFBB5E;" d="M503.395,253.491c0,62.376-110.762,112.941-247.395,112.941S8.605,315.867,8.605,253.491
	S119.368,140.55,256,140.55S503.395,191.115,503.395,253.491z"/>
<path style="fill:#CF8F3D;" d="M503.395,214.051c0,62.376-110.762,112.941-247.395,112.941S8.605,276.427,8.605,214.051
	S119.368,101.11,256,101.11S503.395,151.675,503.395,214.051z"/>
<path d="M510.302,228.369c1.114-4.709,1.698-9.486,1.698-14.318c0-33.734-27.52-64.877-77.492-87.689
	c-34.825-15.898-77.91-26.589-124.738-31.229c-2.426-9.595-6.202-18.517-11.055-25.817c-9.77-14.694-14.008-36.711-10.547-54.787
	c0.894-4.667-2.165-9.176-6.833-10.07c-4.67-0.894-9.176,2.165-10.07,6.833c-4.32,22.555,0.829,49.07,13.118,67.552
	c2.96,4.453,5.327,9.482,7.12,14.8c-11.668-0.751-23.523-1.139-35.503-1.139c-5.847,0-11.664,0.097-17.446,0.276
	c-2.429-8.696-5.969-16.767-10.422-23.467c-9.769-14.688-14.009-36.706-10.552-54.789c0.893-4.668-2.168-9.175-6.837-10.068
	c-4.669-0.893-9.175,2.168-10.068,6.836c-4.313,22.561,0.839,49.077,13.125,67.549c2.955,4.446,5.319,9.466,7.11,14.775
	c-54.022,3.43-104.01,14.753-143.42,32.744C27.52,149.174,0,180.317,0,214.051c0,4.832,0.584,9.609,1.698,14.318
	C0.572,233.092,0,237.886,0,242.734c0,4.79,0.57,9.603,1.697,14.342C0.57,261.814,0,266.628,0,271.417
	c0,4.791,0.57,9.603,1.697,14.341C0.57,290.498,0,295.312,0,300.101s0.57,9.603,1.697,14.341C0.57,319.181,0,323.994,0,328.785
	c0,4.79,0.57,9.603,1.697,14.341C0.57,347.865,0,352.678,0,357.468c0,4.791,0.57,9.603,1.697,14.341
	C0.57,376.548,0,381.362,0,386.152c0,33.734,27.52,64.877,77.492,87.689c47.825,21.833,111.22,33.858,178.508,33.858
	s130.684-12.024,178.508-33.858C484.48,451.028,512,419.886,512,386.152c0-4.79-0.57-9.603-1.697-14.341
	c1.127-4.738,1.697-9.551,1.697-14.341s-0.57-9.604-1.697-14.341c1.127-4.738,1.697-9.552,1.697-14.341
	c0-4.791-0.57-9.603-1.697-14.341c1.127-4.74,1.697-9.554,1.697-14.343s-0.57-9.603-1.697-14.341
	c1.127-4.738,1.697-9.551,1.697-14.341s-0.57-9.604-1.697-14.341c1.127-4.738,1.697-9.552,1.697-14.342
	C512,237.886,511.428,233.092,510.302,228.369z M84.639,142.017c38.179-17.43,87.023-28.302,139.958-31.389
	c1.76,16.745-1.66,33.599-10.309,43.326c-3.158,3.552-2.839,8.99,0.713,12.148c1.639,1.457,3.681,2.175,5.715,2.175
	c2.372,0,4.734-0.976,6.433-2.887c12.552-14.115,16.635-35.21,14.615-55.483c4.721-0.123,9.466-0.193,14.235-0.193
	c13.278,0,26.383,0.488,39.228,1.432c1.636,16.573-1.796,33.182-10.356,42.811c-3.157,3.552-2.837,8.991,0.714,12.148
	c1.639,1.457,3.681,2.174,5.715,2.174c2.373,0,4.734-0.976,6.434-2.888c11.971-13.466,16.236-33.279,14.852-52.673
	c43.178,4.666,82.733,14.672,114.775,29.298c42.851,19.564,67.428,45.819,67.428,72.034s-24.577,52.47-67.429,72.034
	C381.733,306.915,320.876,318.387,256,318.387s-125.733-11.472-171.361-32.302c-42.852-19.564-67.429-45.819-67.429-72.034
	S41.787,161.581,84.639,142.017z M493.126,288.061c1.104,3.977,1.664,8.029,1.664,12.041s-0.56,8.064-1.664,12.041
	c-0.417,1.506-0.417,3.097,0,4.603c1.104,3.977,1.664,8.027,1.664,12.04s-0.56,8.064-1.664,12.041c-0.417,1.506-0.417,3.097,0,4.603
	c1.104,3.977,1.664,8.027,1.664,12.041c0,4.013-0.56,8.064-1.664,12.04c-0.417,1.506-0.417,3.097,0,4.603
	c1.104,3.978,1.664,8.03,1.664,12.042c0,26.215-24.577,52.47-67.429,72.034C381.733,479.016,320.876,490.488,256,490.488
	s-125.733-11.472-171.361-32.302c-42.852-19.564-67.429-45.819-67.429-72.034c0-4.012,0.56-8.064,1.663-12.041
	c0.418-1.505,0.418-3.097,0-4.603c-1.103-3.977-1.663-8.027-1.663-12.041c0-4.013,0.56-8.064,1.663-12.041
	c0.418-1.506,0.418-3.097,0-4.603c-1.103-3.977-1.663-8.027-1.663-12.04s0.56-8.064,1.663-12.04c0.418-1.506,0.418-3.097,0-4.603
	c-1.103-3.978-1.663-8.03-1.663-12.042s0.56-8.064,1.663-12.041c0.418-1.505,0.418-3.097,0-4.603
	c-1.103-3.977-1.663-8.027-1.663-12.041c0-3.678,0.493-7.385,1.421-11.04c13.132,15.489,32.976,29.545,58.861,41.362
	c47.825,21.833,111.22,33.858,178.508,33.858s130.684-12.024,178.508-33.858c25.885-11.817,45.728-25.872,58.861-41.361
	c0.928,3.655,1.421,7.363,1.421,11.04c0,4.012-0.56,8.064-1.664,12.04C492.709,284.964,492.709,286.555,493.126,288.061z
	 M304.28,223.3c0-4.752,3.853-8.605,8.605-8.605h2.36c4.752,0,8.605,3.853,8.605,8.605c0,4.752-3.853,8.605-8.605,8.605h-2.36
	C308.132,231.905,304.28,228.052,304.28,223.3z M413.176,213.792c0-4.752,3.853-8.605,8.605-8.605h2.356
	c4.752,0,8.605,3.853,8.605,8.605s-3.853,8.605-8.605,8.605h-2.356C417.029,222.397,413.176,218.544,413.176,213.792z
	 M199.171,251.711c0-4.752,3.852-8.605,8.605-8.605h2.359c4.752,0,8.605,3.853,8.605,8.605c0,4.752-3.853,8.605-8.605,8.605h-2.359
	C203.024,260.316,199.171,256.463,199.171,251.711z M107.366,197.385c0-4.752,3.853-8.605,8.605-8.605h2.359
	c4.753,0,8.605,3.853,8.605,8.605s-3.852,8.605-8.605,8.605h-2.359C111.219,205.99,107.366,202.137,107.366,197.385z"/>
<g>
</g>
<g>
</g>
<g>
</g>
<g>
</g>
<g>
</g>
<g>
</g>
<g>
</g>
<g>
</g>
<g>
</g>
<g>
</g>
<g>
</g>
<g>
</g>
<g>
</g>
<g>
</g>
<g>
</g>
</svg>
